<?xml version="1.0" encoding="utf-8"?>
<!-- Generator: Adobe Illustrator 22.0.0, SVG Export Plug-In . SVG Version: 6.00 Build 0)  -->
<svg version="1.1" id="レイヤー_1" xmlns="http://www.w3.org/2000/svg" xmlns:xlink="http://www.w3.org/1999/xlink" x="0px"
	 y="0px" viewBox="0 0 28.2 48.4" style="enable-background:new 0 0 28.2 48.4;" xml:space="preserve">
<style type="text/css">
	.st0{fill:#B4A244;}
	.st1{fill:#A7963E;}
	.st2{fill:#E60012;}
</style>
<g>
	<g>
		<g>
			<path class="st0" d="M0.9,36.1C1,36.2,1,36.3,1.1,36.3c0,0,0.1,0,0.1,0c0,0,0.1,0,0.1-0.1c0-0.1,0.1-0.2,0.1-0.3v-0.2
				c0-0.1,0-0.2,0-0.3c0-0.1,0-0.1,0-0.1c0,0,0-0.1,0-0.2l0-0.2l0-1.1c0-0.1,0-0.1,0-0.1c0-0.1,0-0.2,0-0.2l0-0.7l0-0.6l0-0.2
				c0-0.1,0-0.2,0-0.3c0,0-0.2,0-0.4,0H0.9l-0.1,0c0,0,0,0-0.1,0l0-0.3c0.2,0,0.3,0,0.5,0c0.1,0,0.3,0,0.5,0c0.2,0,0.4,0,0.6,0
				c0,0,0.1,0,0.1,0c0,0,0.1,0,0.1,0c0,0,0,0.1,0,0.1c0,0,0,0.1,0,0.1c-0.1,0-0.2,0-0.3,0c-0.1,0-0.2,0-0.2,0c0,0,0,0.1,0,0.1
				c0,0.2,0,0.3,0,0.4c0,0,0,0.2,0,0.3v0.2l0,0.4l0,0.3l0,0.3l0,0.3l0,0.2c0,0.4,0,0.8-0.1,1c0,0.2-0.1,0.4-0.2,0.6
				c-0.1,0.2-0.2,0.4-0.3,0.5c-0.2,0.1-0.3,0.2-0.4,0.3c-0.1,0.1-0.3,0.1-0.4,0.1c-0.1,0-0.2,0-0.3-0.1c-0.1-0.1-0.1-0.2-0.1-0.3
				c0-0.1,0-0.2,0.1-0.3c0.1-0.1,0.2-0.1,0.2-0.1C0.7,35.9,0.8,36,0.9,36.1z"/>
			<path class="st0" d="M5.1,35.3l0-0.2c0,0,0.1,0,0.2,0C5.4,35,5.5,35,5.6,35c0,0,0.1-0.1,0.1-0.2l0.6-1.6l0.7-1.9
				c0.1,0,0.1,0,0.2,0h0.1l0,0.1l0.5,1.2c0.1,0.3,0.2,0.5,0.3,0.8c0.1,0.2,0.2,0.4,0.2,0.6c0,0.1,0.1,0.2,0.2,0.4
				c0,0.1,0.1,0.2,0.2,0.4c0,0.1,0.1,0.1,0.1,0.1c0,0,0.1,0,0.2,0.1c0.1,0,0.2,0,0.2,0.1c0,0.1,0,0.1,0,0.2c0,0,0,0,0,0.1
				c-0.1,0-0.3,0-0.5,0c-0.2,0-0.3,0-0.5,0c-0.1,0-0.3,0-0.3,0l-0.5,0l-0.1,0c0-0.1,0-0.1,0-0.2L7.6,35c0.1,0,0.1,0,0.2-0.1
				c0,0,0,0,0-0.1s0-0.1,0-0.1l-0.1-0.3l-0.2-0.6H6.3c0,0.1-0.1,0.3-0.2,0.7C6,34.7,6,34.8,6,34.8c0,0.1,0,0.1,0,0.1
				c0,0,0.1,0.1,0.3,0.1c0,0,0.1,0,0.2,0c0,0.1,0,0.1,0,0.2c0,0,0,0,0,0.1c-0.1,0-0.4,0-0.8-0.1l-0.1,0C5.4,35.3,5.3,35.3,5.1,35.3
				L5.1,35.3z M6.4,33.6c0.4,0,0.7,0,0.8,0l0.1,0c-0.1-0.2-0.1-0.4-0.2-0.6c-0.1-0.2-0.2-0.4-0.2-0.5L6.4,33.6z"/>
			<path class="st0" d="M11.6,31.6v-0.2l0.7,0l0.3,0h0.1c0.1,0,0.3,0,0.5,0c0.1,0,0.2,0,0.3,0c0.2,0,0.4,0,0.5,0
				c0.2,0,0.3,0.1,0.4,0.2c0.1,0.1,0.2,0.2,0.3,0.4c0.1,0.2,0.1,0.3,0.1,0.5c0,0.3-0.1,0.6-0.3,0.8c-0.2,0.2-0.5,0.3-0.8,0.3
				c-0.1,0-0.2,0-0.3,0c-0.1,0-0.2-0.1-0.3-0.1c0-0.1,0-0.1,0-0.2c0,0,0.1,0,0.1,0c0,0,0.1,0,0.1,0c0.2,0,0.3,0,0.4-0.1
				C14,33,14,32.8,14,32.5c0-0.2,0-0.4-0.1-0.5c-0.1-0.1-0.1-0.2-0.2-0.3c-0.1-0.1-0.3-0.1-0.4-0.1c-0.1,0-0.2,0-0.3,0.1
				c0,0,0,0.1,0,0.1l0,1.4l0,0.1l0,0.1c0,0,0,0.1,0,0.1v0.2l0,0.4l0,0.5c0,0.1,0,0.2,0,0.3l0.6,0.1c0,0,0,0.1,0,0.1c0,0,0,0.1,0,0.1
				c0,0-0.1,0-0.1,0c-0.1,0-0.2,0-0.3,0c-0.2,0-0.4,0-0.6,0c-0.2,0-0.5,0-0.7,0.1c0,0-0.1,0-0.2,0c0-0.1,0-0.1,0-0.1c0,0,0,0,0-0.1
				l0.2-0.1c0.1,0,0.2-0.1,0.3-0.1c0-0.1,0-0.1,0-0.2c0,0,0,0,0-0.1c0-0.1,0-0.2,0-0.3l0-0.8l0-1c0-0.5,0-0.7,0-0.7
				c0-0.1,0-0.1-0.1-0.1c0,0-0.1-0.1-0.2-0.1C11.8,31.6,11.6,31.6,11.6,31.6z"/>
			<path class="st0" d="M17,35.3l0-0.2c0,0,0.1,0,0.2,0c0.1,0,0.2-0.1,0.3-0.1c0,0,0.1-0.1,0.1-0.2l0.6-1.6l0.7-1.9
				c0.1,0,0.1,0,0.2,0h0.1l0,0.1l0.5,1.2c0.1,0.3,0.2,0.5,0.3,0.8c0.1,0.2,0.2,0.4,0.2,0.6c0,0.1,0.1,0.2,0.2,0.4
				c0,0.1,0.1,0.2,0.2,0.4c0,0.1,0.1,0.1,0.1,0.1c0,0,0.1,0,0.2,0.1c0.1,0,0.2,0,0.2,0.1c0,0.1,0,0.1,0,0.2c0,0,0,0,0,0.1
				c-0.1,0-0.3,0-0.5,0c-0.2,0-0.3,0-0.5,0c-0.2,0-0.3,0-0.3,0l-0.5,0l-0.1,0c0-0.1,0-0.1,0-0.2l0.3-0.1c0.1,0,0.1,0,0.2-0.1
				c0,0,0,0,0-0.1s0-0.1,0-0.1l-0.1-0.3l-0.2-0.6h-1.1c0,0.1-0.1,0.3-0.3,0.7c0,0.1-0.1,0.2-0.1,0.2c0,0.1,0,0.1,0,0.1
				c0,0,0.1,0.1,0.3,0.1c0,0,0.1,0,0.2,0c0,0.1,0,0.1,0,0.2c0,0,0,0,0,0.1c-0.1,0-0.4,0-0.8-0.1l-0.1,0C17.3,35.3,17.2,35.3,17,35.3
				L17,35.3z M18.4,33.6c0.4,0,0.7,0,0.8,0l0.1,0c-0.1-0.2-0.1-0.4-0.2-0.6c-0.1-0.2-0.2-0.4-0.2-0.5L18.4,33.6z"/>
			<path class="st0" d="M23.4,31.6l0-0.2h0.2h0.1c0.1,0,0.2,0,0.2,0c0,0,0.1,0,0.2,0c0,0,0,0,0.1,0c0,0,0.1,0,0.2,0
				c0.1,0,0.2,0,0.2,0c0,0,0.1,0,0.1,0c0.3,0.3,0.5,0.5,0.7,0.7c0.2,0.2,0.9,0.9,2,2.1v-0.1l0-0.4c0-0.2,0-0.4,0-0.5
				c0-0.1,0-0.3,0-0.4c0-0.2,0-0.3,0-0.5c0-0.3,0-0.4,0-0.5c0-0.1,0-0.2,0-0.2c0,0-0.1-0.1-0.3-0.1c-0.1,0-0.2,0-0.2-0.1l0-0.2
				l0.1,0l0.6,0l0.6,0c0,0,0.1,0,0.1,0l0,0.2c0,0-0.1,0-0.1,0.1c-0.1,0-0.2,0.1-0.2,0.1c-0.1,0.1-0.1,0.1-0.2,0.1c0,0,0,0.1,0,0.1
				c0,0,0,0.1,0,0.1c0,0,0,0.1,0,0.3c0,0.3,0,0.5,0,0.7c0,0.1,0,0.1,0,0.2l0,1.1c0,0.1,0,0.1,0,0.2v0.4l0,0.2l0,0.2
				c0,0.1,0,0.1,0,0.1v0.2l-0.3,0L27.1,35l-0.7-0.7l-0.5-0.5l-0.4-0.4c-0.2-0.2-0.4-0.5-0.6-0.6l-0.5-0.4l0,1.1c0,0.1,0,0.1,0,0.2
				l0,0.2l0,0.4c0,0.2,0,0.3,0,0.5c0,0.1,0,0.1,0,0.1c0,0,0,0.1,0,0.1c0.1,0,0.2,0,0.5,0.1c0,0,0,0,0.1,0l0,0.2l-0.1,0
				c-0.1,0-0.3,0-0.6,0c-0.3,0-0.5,0-0.6,0c-0.1,0-0.2,0-0.2,0c0,0-0.1,0-0.1,0c0,0,0-0.1,0-0.1c0,0,0-0.1,0-0.1c0.1,0,0.1,0,0.1,0
				c0,0,0,0,0.1,0c0.2,0,0.3,0,0.3,0c0,0,0-0.1,0-0.2c0-0.3,0-0.5,0-0.6v-0.2l0-1l0-0.6c0-0.2,0-0.4,0-0.5c0,0,0-0.1-0.1-0.1
				c-0.1-0.1-0.1-0.1-0.2-0.2C23.8,31.7,23.7,31.7,23.4,31.6z"/>
			<path class="st0" d="M0,41.8l0-0.2c0,0,0.1,0,0.2,0c0.1,0,0.2,0,0.3-0.1c0,0,0-0.1,0.1-0.1c0-0.1,0-0.3,0-0.5l0-1.3
				c0-0.1,0-0.5,0-1c0-0.1,0-0.2,0-0.3c0,0,0,0,0,0c0,0-0.1,0-0.2,0c0,0-0.1,0-0.3,0l0-0.2l0.6,0l0.9,0l0.1,0c0,0,0,0,0.1,0
				c0,0,0.1,0,0.2,0h0.2c0.1,0,0.3,0,0.5,0.1c0.1,0,0.1,0,0.2,0.1c0.1,0,0.2,0.1,0.3,0.2c0.1,0.1,0.1,0.2,0.2,0.3c0,0.1,0,0.2,0,0.3
				c0,0.1,0,0.2-0.1,0.3c-0.1,0.1-0.1,0.2-0.2,0.3c-0.1,0-0.2,0.1-0.4,0.2c0.3,0.1,0.5,0.2,0.7,0.4c0.2,0.2,0.2,0.4,0.2,0.6
				c0,0.1,0,0.3-0.1,0.4c0,0.1-0.1,0.2-0.2,0.3c-0.1,0.1-0.2,0.2-0.3,0.3c-0.1,0.1-0.3,0.1-0.5,0.2c-0.1,0-0.3,0-0.5,0l-0.5,0
				c-0.2,0-0.5,0-0.7,0C0.6,41.8,0.4,41.8,0,41.8z M1.3,39.5c0.1,0,0.2,0,0.3,0c0.3,0,0.5-0.1,0.7-0.2c0.1-0.1,0.2-0.3,0.2-0.6
				c0-0.2-0.1-0.4-0.2-0.5c-0.1-0.1-0.3-0.2-0.6-0.2c-0.1,0-0.2,0-0.3,0c0,0,0,0.1,0,0.2c0,0.2,0,0.4,0,0.7v0.3
				C1.3,39.4,1.3,39.5,1.3,39.5z M1.4,41.5c0.1,0.1,0.2,0.1,0.3,0.1c0.2,0,0.4,0,0.5-0.1c0.1-0.1,0.2-0.2,0.3-0.3
				c0.1-0.1,0.1-0.3,0.1-0.5c0-0.2,0-0.3-0.1-0.5c-0.1-0.2-0.2-0.3-0.3-0.3c-0.1-0.1-0.3-0.1-0.6-0.1c-0.1,0-0.2,0-0.3,0v0.4v0.4
				l0,0.7C1.3,41.4,1.3,41.4,1.4,41.5z"/>
			<path class="st0" d="M5.8,41.6c0,0,0.1,0,0.2-0.1c0.1,0,0.2,0,0.3-0.1c0,0,0-0.1,0-0.1c0,0,0-0.1,0-0.3l0-0.7l0-0.4l0-0.3l0-0.2
				c0-0.2,0-0.4,0-0.6c0-0.4,0-0.7,0-0.8l-0.2,0c-0.2,0-0.3,0-0.3,0l0-0.2l0,0c0.1,0,0.2,0,0.3,0c0,0,0.1,0,0.3,0c0.1,0,0.2,0,0.2,0
				l0.2,0l0.4,0c0.2,0,0.5,0,0.7,0c0.4,0,0.7,0.1,0.9,0.3C8.9,38.4,9,38.6,9,38.9c0,0.2-0.1,0.4-0.2,0.6c-0.1,0.2-0.3,0.3-0.6,0.4
				c0,0,0.1,0.1,0.1,0.1c0.1,0.1,0.1,0.2,0.2,0.3L9,41.1c0.1,0.2,0.2,0.3,0.2,0.4c0,0,0.1,0.1,0.2,0.1c0.1,0,0.2,0.1,0.2,0.1
				c0,0,0,0.1,0,0.1c0,0,0,0,0,0.1H9.6l-0.1,0l-0.1,0H9.3c-0.1,0-0.1,0-0.2,0l-0.3,0c0,0-0.1,0-0.2,0c0,0-0.1,0-0.1,0l-0.1-0.2
				c-0.1-0.2-0.1-0.3-0.2-0.3c-0.1-0.2-0.2-0.5-0.4-0.9C7.7,40.1,7.6,40,7.6,40c-0.1,0-0.2-0.1-0.3-0.1c0,0-0.1,0-0.2,0
				c0,0.1,0,0.1,0,0.2l0,0.7l0,0.6c0.1,0,0.1,0.1,0.2,0.1c0.1,0,0.3,0.1,0.4,0.1c0,0.1,0,0.2,0,0.2c0,0-0.1,0-0.1,0l-0.1,0
				c-0.4,0-0.7-0.1-0.7-0.1c0,0-0.1,0-0.1,0l-0.4,0c-0.1,0-0.2,0-0.3,0H5.8C5.8,41.8,5.8,41.7,5.8,41.6C5.8,41.7,5.8,41.7,5.8,41.6z
				 M7.1,39.7c0.1,0,0.2,0,0.2,0c0.3,0,0.6-0.1,0.7-0.2c0.1-0.1,0.2-0.3,0.2-0.5c0-0.1,0-0.2,0-0.4c0-0.1-0.1-0.2-0.1-0.2
				c-0.1-0.1-0.2-0.1-0.3-0.2c-0.1,0-0.2,0-0.4,0c-0.1,0-0.2,0-0.2,0l0,0.1l0,0.4l0,0.2l0,0.3C7.1,39.3,7.1,39.4,7.1,39.7L7.1,39.7z
				"/>
			<path class="st0" d="M11.3,41.8l0-0.2c0,0,0.1,0,0.2,0c0.1,0,0.2-0.1,0.3-0.1c0,0,0.1-0.1,0.1-0.2l0.6-1.6l0.7-1.9
				c0.1,0,0.1,0,0.2,0h0.1l0,0.1l0.5,1.2c0.1,0.3,0.2,0.5,0.3,0.8c0.1,0.2,0.2,0.4,0.2,0.6c0,0.1,0.1,0.2,0.2,0.4
				c0,0.1,0.1,0.2,0.2,0.4c0,0.1,0.1,0.1,0.1,0.1c0,0,0.1,0,0.2,0.1c0.1,0,0.2,0,0.2,0.1c0,0.1,0,0.1,0,0.1c0,0,0,0,0,0.1
				c-0.1,0-0.3,0-0.5,0c-0.2,0-0.3,0-0.5,0c-0.2,0-0.3,0-0.3,0l-0.5,0l-0.1,0c0-0.1,0-0.1,0-0.2l0.3-0.1c0.1,0,0.1,0,0.2-0.1
				c0,0,0,0,0-0.1s0-0.1,0-0.1L13.8,41l-0.2-0.6h-1.1c0,0.1-0.1,0.3-0.3,0.7c0,0.1-0.1,0.2-0.1,0.2c0,0,0,0.1,0,0.1
				c0,0,0.1,0.1,0.3,0.1c0,0,0.1,0,0.2,0c0,0.1,0,0.1,0,0.2c0,0,0,0,0,0.1c-0.1,0-0.4,0-0.8-0.1l-0.1,0
				C11.6,41.8,11.5,41.8,11.3,41.8L11.3,41.8z M12.6,40.1c0.4,0,0.7,0,0.8,0l0.1,0c-0.1-0.2-0.1-0.4-0.2-0.6
				c-0.1-0.2-0.2-0.4-0.2-0.5L12.6,40.1z"/>
			<path class="st0" d="M17,38.1l0-0.2h0.2h0.1c0.1,0,0.2,0,0.2,0c0,0,0.1,0,0.2,0c0,0,0,0,0.1,0c0,0,0.1,0,0.2,0c0.1,0,0.2,0,0.2,0
				c0,0,0,0,0.1,0c0.3,0.3,0.5,0.5,0.7,0.7c0.2,0.2,0.9,0.9,2,2.1v-0.1l0-0.4c0-0.2,0-0.4,0-0.5c0-0.1,0-0.3,0-0.4
				c0-0.2,0-0.3,0-0.5c0-0.3,0-0.4,0-0.5c0-0.1,0-0.2,0-0.2c0,0-0.1-0.1-0.3-0.1c-0.1,0-0.2,0-0.2-0.1l0-0.2l0.1,0l0.6,0l0.6,0
				c0,0,0.1,0,0.1,0l0,0.2c0,0-0.1,0-0.1,0.1c-0.1,0-0.2,0.1-0.2,0.1c-0.1,0.1-0.2,0.1-0.2,0.1c0,0,0,0.1,0,0.1c0,0,0,0.1,0,0.1
				c0,0,0,0.1,0,0.3c0,0.3,0,0.5,0,0.7c0,0.1,0,0.1,0,0.2l0,1.1c0,0.1,0,0.1,0,0.2v0.4l0,0.2l0,0.2c0,0.1,0,0.1,0,0.1v0.2l-0.3,0
				l-0.3-0.4l-0.7-0.7l-0.5-0.5l-0.4-0.4c-0.2-0.2-0.5-0.5-0.6-0.6L18,38.8l0,1.1c0,0.1,0,0.1,0,0.2l0,0.2l0,0.4c0,0.2,0,0.3,0,0.5
				c0,0.1,0,0.1,0,0.1c0,0,0,0.1,0,0.1c0.1,0,0.2,0,0.5,0.1c0,0,0,0,0.1,0l0,0.2l-0.1,0c-0.1,0-0.3,0-0.6,0c-0.3,0-0.5,0-0.6,0
				c-0.1,0-0.2,0-0.2,0c0,0-0.1,0-0.1,0c0,0,0-0.1,0-0.1c0,0,0-0.1,0-0.1c0.1,0,0.1,0,0.1,0c0,0,0.1,0,0.1,0c0.2,0,0.3,0,0.3,0
				c0,0,0-0.1,0-0.2c0-0.3,0-0.5,0-0.6v-0.2l0-1l0-0.6c0-0.2,0-0.4,0-0.5c0,0,0-0.1-0.1-0.1c-0.1-0.1-0.1-0.1-0.2-0.2
				C17.3,38.2,17.2,38.2,17,38.1z"/>
			<path class="st0" d="M23.8,41.6c0,0,0.1,0,0.2,0c0.2,0,0.3-0.1,0.3-0.1c0,0,0.1-0.1,0.1-0.2c0,0,0-0.3,0-0.9V40v-0.4v-1v-0.1
				c0-0.1,0-0.1,0-0.1c0,0-0.1,0-0.1,0c-0.1,0-0.1,0-0.2,0c-0.1,0-0.2,0-0.2,0c0,0,0,0-0.1,0v-0.3c0.1,0,0.3-0.1,0.5-0.1
				c0.3-0.1,0.8-0.1,1.3-0.1c0.4,0,0.7,0,0.9,0.1c0.3,0.1,0.5,0.2,0.7,0.3c0.3,0.2,0.4,0.4,0.6,0.7c0.1,0.3,0.2,0.6,0.2,0.9
				c0,0.4-0.1,0.8-0.3,1c-0.2,0.3-0.4,0.5-0.7,0.7c-0.2,0.1-0.5,0.2-0.9,0.2l-0.6,0l-0.2,0l-0.2,0l-0.1,0l-0.2,0l-0.3,0
				c0,0-0.1,0-0.3,0c-0.1,0-0.1,0-0.2,0c-0.1,0-0.1,0-0.1,0C23.8,41.8,23.8,41.7,23.8,41.6z M25.2,38.2c0,0.1,0,0.1,0,0.1v0.5l0,0.4
				c0,0.1,0,0.3,0,0.4l0,0.3l0,0.5l0,0.3c0,0.3,0,0.5,0.1,0.6c0.1,0.1,0.3,0.2,0.6,0.2c0.2,0,0.3,0,0.4-0.1c0.2-0.1,0.3-0.2,0.4-0.3
				c0.1-0.1,0.2-0.3,0.3-0.5c0.1-0.2,0.1-0.5,0.1-0.7c0-0.4-0.1-0.7-0.2-1c-0.1-0.3-0.3-0.4-0.5-0.6c-0.2-0.1-0.5-0.2-0.7-0.2
				C25.5,38.1,25.3,38.2,25.2,38.2z"/>
			<path class="st0" d="M0.2,44.6v-0.2l0.7,0l0.3,0h0.1c0.1,0,0.3,0,0.5,0c0.1,0,0.2,0,0.3,0c0.2,0,0.4,0,0.5,0
				c0.2,0,0.3,0.1,0.4,0.2c0.1,0.1,0.2,0.2,0.3,0.4c0.1,0.2,0.1,0.3,0.1,0.5c0,0.3-0.1,0.6-0.3,0.8c-0.2,0.2-0.5,0.3-0.8,0.3
				c-0.1,0-0.2,0-0.3,0c-0.1,0-0.2-0.1-0.3-0.1c0-0.1,0-0.1,0-0.2c0,0,0.1,0,0.1,0c0,0,0.1,0,0.1,0c0.2,0,0.3,0,0.4-0.1
				c0.1-0.1,0.2-0.3,0.2-0.6c0-0.2,0-0.4-0.1-0.5c-0.1-0.1-0.1-0.2-0.2-0.3c-0.1-0.1-0.3-0.1-0.4-0.1c-0.1,0-0.2,0-0.3,0.1
				c0,0,0,0.1,0,0.1l0,1.4l0,0.1v0.1c0,0,0,0.1,0,0.1v0.2l0,0.4l0,0.5c0,0.1,0,0.2,0,0.3l0.6,0.1c0,0,0,0.1,0,0.1c0,0,0,0.1,0,0.1
				c0,0-0.1,0-0.1,0c-0.1,0-0.2,0-0.3,0c-0.2,0-0.4,0-0.6,0c-0.2,0-0.5,0-0.7,0.1c0,0-0.1,0-0.2,0c0-0.1,0-0.1,0-0.1c0,0,0,0,0-0.1
				l0.2-0.1c0.1,0,0.2-0.1,0.3-0.1c0-0.1,0-0.1,0-0.2c0,0,0,0,0-0.1c0-0.1,0-0.1,0-0.3l0-0.8l0-1c0-0.5,0-0.7,0-0.7
				c0-0.1,0-0.1-0.1-0.1c0,0-0.1-0.1-0.2-0.1C0.3,44.7,0.2,44.7,0.2,44.6z"/>
			<path class="st0" d="M5.1,46.3c0-0.2,0-0.5,0.1-0.7c0.1-0.2,0.2-0.3,0.3-0.5c0.1-0.2,0.3-0.3,0.5-0.4c0.2-0.1,0.4-0.2,0.6-0.3
				c0.2-0.1,0.4-0.1,0.6-0.1c0.4,0,0.7,0.1,1,0.2c0.3,0.2,0.5,0.4,0.7,0.6c0.2,0.3,0.3,0.7,0.3,1.1c0,0.6-0.2,1.1-0.6,1.5
				c-0.4,0.4-0.9,0.6-1.5,0.6c-0.2,0-0.3,0-0.5,0c-0.1,0-0.2,0-0.3-0.1c-0.1-0.1-0.2-0.1-0.2-0.1c-0.2-0.1-0.4-0.3-0.5-0.4
				c-0.1-0.1-0.2-0.3-0.3-0.4c0-0.1-0.1-0.3-0.2-0.5C5.1,46.7,5.1,46.5,5.1,46.3z M7,44.7c-0.2,0-0.3,0-0.4,0.1
				c-0.1,0.1-0.2,0.2-0.3,0.3c-0.1,0.2-0.2,0.3-0.2,0.5C6,45.8,6,46,6,46.3c0,0.2,0,0.3,0,0.4c0,0,0,0.1,0,0.1c0,0.1,0,0.3,0.1,0.3
				c0.1,0.3,0.1,0.4,0.2,0.5c0.1,0.1,0.1,0.2,0.3,0.3C6.6,47.9,6.6,48,6.7,48c0.1,0,0.2,0.1,0.3,0.1c0.2,0,0.4,0,0.6-0.2
				c0.2-0.1,0.3-0.3,0.4-0.5c0.1-0.2,0.2-0.6,0.2-0.9c0-0.2,0-0.4,0-0.6l0-0.1c0,0,0-0.1,0-0.1c-0.1-0.3-0.2-0.6-0.4-0.7
				C7.6,44.7,7.3,44.7,7,44.7z"/>
			<path class="st0" d="M10.7,48.1c0.1,0,0.1,0,0.3,0c0.1,0,0.2,0,0.2,0c0.1,0,0.1,0,0.2,0c0,0,0-0.1,0-0.1l0-0.4l0-0.4v-0.3l0-0.3
				l0-0.3l0-0.7l0-0.3v0c0-0.2,0-0.3,0-0.3c0,0-0.1,0-0.2-0.1c0,0,0,0-0.1,0c0,0-0.1,0-0.1,0c-0.1,0-0.1,0-0.1-0.1
				c0-0.1,0-0.1,0-0.1c0,0,0,0,0-0.1c0,0,0,0,0.1,0c0,0,0.2,0,0.5,0l0.4,0l0.3,0c0.1,0,0.3,0,0.5,0c0.1,0,0.1,0,0.1,0c0,0,0,0,0.1,0
				c0,0,0,0.1,0,0.1c0,0,0,0.1,0,0.1c0,0-0.1,0-0.1,0l-0.4,0.1c0,0,0,0,0,0c0,0,0,0,0,0l0,0.1l0,0.2v0.1v0c0,0,0,0.1,0,0.2
				c0,0,0,0.1,0,0.1c0,0,0,0.1,0,0.2c0,0.1,0,0.2,0,0.3c0,0.1,0,0.2,0,0.4c0,0.1,0,0.1,0,0.2l0,1.4c0,0.1,0,0.1,0,0.1l0.3,0l0.2,0
				l0.2,0c0.3,0,0.6,0,0.7-0.1c0.1-0.1,0.2-0.1,0.3-0.2c0.1-0.1,0.1-0.1,0.2-0.2c0-0.1,0.1-0.2,0.1-0.3h0.1c0,0,0.1,0,0.2,0v0.1
				c0,0.1,0,0.4-0.1,0.7c0,0.1,0,0.2,0,0.3c0,0-0.1,0-0.1,0H14l-0.1,0c0,0-0.1,0-0.3,0c0,0-0.2,0-0.6,0c-0.3,0-0.7,0-1,0l-0.6,0
				c-0.2,0-0.4,0-0.6,0h0c0,0,0,0-0.1,0c0,0,0,0,0-0.1C10.7,48.2,10.7,48.1,10.7,48.1z"/>
			<path class="st0" d="M15.7,48.3v-0.2c0,0,0.1,0,0.2-0.1c0.1,0,0.2-0.1,0.3-0.1c0-0.1,0.1-0.1,0.1-0.3l0-0.4l0-0.7l0-0.2
				c0-0.4,0-0.6,0-0.6l0-0.4l0-0.2l0-0.3l0-0.1c0,0,0-0.1,0-0.1c-0.1,0-0.2-0.1-0.4-0.1c0,0-0.1,0-0.1,0l0-0.3l0.8,0
				c0.1,0,0.2,0,0.2,0c0.1,0,0.3,0,0.5,0c0.1,0,0.2,0,0.3,0c0,0,0,0.1,0,0.1c0,0,0,0.1,0,0.1c-0.1,0-0.2,0.1-0.3,0.1
				c-0.1,0-0.2,0.1-0.2,0.1c0,0.1,0,0.1,0,0.2c0,0.1,0,0.2,0,0.2c0,0.3,0,0.6,0,0.8l0,0.8l0,0.4l0,0.6l0,0.1c0,0,0,0,0,0.1
				c0.1,0,0.2,0,0.3,0.1c0,0,0.1,0,0.2,0c0,0.1,0,0.1,0,0.1c0,0,0,0.1,0,0.1c0,0,0,0-0.1,0c-0.1,0-0.1,0-0.1,0c0,0,0,0-0.1,0
				c0,0-0.2,0-0.4,0l-0.5,0c-0.1,0-0.2,0-0.4,0C15.9,48.3,15.8,48.3,15.7,48.3z"/>
			<path class="st0" d="M22.5,44.5c0,0.1,0.1,0.2,0.1,0.5c0,0.1,0.1,0.3,0.1,0.4h-0.3c-0.2-0.3-0.4-0.5-0.6-0.6
				c-0.2-0.1-0.4-0.2-0.7-0.2c-0.3,0-0.5,0.1-0.7,0.4c-0.2,0.3-0.4,0.8-0.4,1.4c0,0.3,0,0.6,0.1,0.7c0.1,0.2,0.2,0.4,0.3,0.6
				c0.1,0.1,0.2,0.2,0.3,0.3c0.2,0.1,0.3,0.1,0.5,0.1c0.2,0,0.4-0.1,0.6-0.2c0.2-0.1,0.4-0.3,0.6-0.6c0.1,0,0.2,0,0.3,0
				c0,0.1,0,0.2,0,0.2c0,0,0,0.2-0.1,0.4l0,0.1l0,0.1c-0.1,0.1-0.3,0.2-0.5,0.2c-0.2,0-0.5,0.1-0.8,0.1c-0.2,0-0.5,0-0.7-0.1
				c-0.2,0-0.4-0.1-0.5-0.2c-0.2-0.1-0.4-0.3-0.5-0.5c-0.1-0.2-0.2-0.4-0.3-0.6c-0.1-0.2-0.1-0.4-0.1-0.7c0-0.6,0.2-1.1,0.6-1.5
				c0.4-0.4,0.9-0.6,1.4-0.6c0.2,0,0.5,0,0.7,0C22.1,44.4,22.3,44.4,22.5,44.5z"/>
			<path class="st0" d="M24,44.5c0.1,0,0.2,0,0.4,0l0,0c0,0,0.1,0,0.1,0l0,0c0,0,0.1,0,0.2,0c0.2,0,0.4,0,0.6,0c0.2,0,0.3,0,0.5,0
				c0,0,0,0,0,0l0,0c0,0,0,0,0,0.1l0,0.2c0,0-0.1,0-0.2,0l-0.1,0c0,0-0.1,0-0.2,0l0,0l0,0c0.1,0.1,0.2,0.4,0.4,0.7
				c0.1,0.1,0.1,0.2,0.2,0.3c0,0,0.1,0.1,0.2,0.3c0,0,0,0,0,0.1c0,0,0,0.1,0.1,0.1c0,0.1,0.1,0.1,0.1,0.1c0,0.1,0.1,0.1,0.1,0.1
				l0.3-0.4c0.1-0.1,0.2-0.3,0.4-0.6l0,0l0.2-0.4c0-0.1,0.1-0.1,0.1-0.1c0,0,0,0,0-0.1c0,0-0.1,0-0.1,0c0,0,0,0-0.1,0
				c0,0-0.1,0-0.1,0c0,0-0.1,0-0.1,0c0,0,0-0.1,0-0.2l0.6,0c0,0,0,0,0.1,0h0.1l0,0c0.1,0,0.1,0,0.2,0c0,0,0.1,0,0.1,0v0.2l0,0
				c-0.2,0-0.3,0.1-0.3,0.1c-0.1,0.1-0.2,0.2-0.3,0.5L27,45.9c-0.2,0.3-0.4,0.5-0.4,0.7c0,0,0,0.1,0,0.1v0.1V47v0.1
				c0,0.1,0,0.1,0,0.2l0,0.8c0,0,0,0,0,0c0,0,0.1,0,0.2,0c0.2,0,0.3,0,0.3,0.1c0,0,0,0,0,0.1c0,0,0,0,0,0.1c0,0,0,0,0,0.1l-0.3,0
				l-0.3,0l-0.2,0l-0.3,0h-0.2c0,0-0.1,0-0.1,0c-0.1,0-0.2,0-0.2,0l-0.2,0c0,0,0-0.1,0-0.1c0,0,0-0.1,0-0.1l0.5-0.1c0,0,0,0,0.1,0
				c0-0.1,0-0.1,0-0.2c0-0.3,0-0.5,0-0.6c0-0.1,0-0.2,0-0.2v-0.1c0-0.1-0.1-0.3-0.2-0.4c-0.1-0.1-0.1-0.1-0.1-0.1l-0.6-0.9L24.6,45
				c0,0-0.1-0.1-0.2-0.2c0,0-0.1-0.1-0.1-0.1c0,0-0.1,0-0.3-0.1c0,0,0,0,0,0C24,44.6,24,44.6,24,44.5C24,44.5,24,44.5,24,44.5z"/>
		</g>
		<g>
			<path class="st1" d="M0.9,36.1C1,36.2,1,36.3,1.1,36.3c0,0,0.1,0,0.1,0c0,0,0.1,0,0.1-0.1c0-0.1,0.1-0.2,0.1-0.3v-0.2
				c0-0.1,0-0.2,0-0.3c0-0.1,0-0.1,0-0.1c0,0,0-0.1,0-0.2l0-0.2l0-1.1c0-0.1,0-0.1,0-0.1c0-0.1,0-0.2,0-0.2l0-0.7l0-0.6l0-0.2
				c0-0.1,0-0.2,0-0.3c0,0-0.2,0-0.4,0H0.9l-0.1,0c0,0,0,0-0.1,0l0-0.3c0.2,0,0.3,0,0.5,0c0.1,0,0.3,0,0.5,0c0.2,0,0.4,0,0.6,0
				c0,0,0.1,0,0.1,0c0,0,0.1,0,0.1,0c0,0,0,0.1,0,0.1c0,0,0,0.1,0,0.1c-0.1,0-0.2,0-0.3,0c-0.1,0-0.2,0-0.2,0c0,0,0,0.1,0,0.1
				c0,0.2,0,0.3,0,0.4c0,0,0,0.2,0,0.3v0.2l0,0.4l0,0.3l0,0.3l0,0.3l0,0.2c0,0.4,0,0.8-0.1,1c0,0.2-0.1,0.4-0.2,0.6
				c-0.1,0.2-0.2,0.4-0.3,0.5c-0.2,0.1-0.3,0.2-0.4,0.3c-0.1,0.1-0.3,0.1-0.4,0.1c-0.1,0-0.2,0-0.3-0.1c-0.1-0.1-0.1-0.2-0.1-0.3
				c0-0.1,0-0.2,0.1-0.3c0.1-0.1,0.2-0.1,0.2-0.1C0.7,35.9,0.8,36,0.9,36.1z"/>
			<path class="st1" d="M5.1,35.3l0-0.2c0,0,0.1,0,0.2,0C5.4,35,5.5,35,5.6,35c0,0,0.1-0.1,0.1-0.2l0.6-1.6l0.7-1.9
				c0.1,0,0.1,0,0.2,0h0.1l0,0.1l0.5,1.2c0.1,0.3,0.2,0.5,0.3,0.8c0.1,0.2,0.2,0.4,0.2,0.6c0,0.1,0.1,0.2,0.2,0.4
				c0,0.1,0.1,0.2,0.2,0.4c0,0.1,0.1,0.1,0.1,0.1c0,0,0.1,0,0.2,0.1c0.1,0,0.2,0,0.2,0.1c0,0.1,0,0.1,0,0.2c0,0,0,0,0,0.1
				c-0.1,0-0.3,0-0.5,0c-0.2,0-0.3,0-0.5,0c-0.1,0-0.3,0-0.3,0l-0.5,0l-0.1,0c0-0.1,0-0.1,0-0.2L7.6,35c0.1,0,0.1,0,0.2-0.1
				c0,0,0,0,0-0.1s0-0.1,0-0.1l-0.1-0.3l-0.2-0.6H6.3c0,0.1-0.1,0.3-0.2,0.7C6,34.7,6,34.8,6,34.8c0,0.1,0,0.1,0,0.1
				c0,0,0.1,0.1,0.3,0.1c0,0,0.1,0,0.2,0c0,0.1,0,0.1,0,0.2c0,0,0,0,0,0.1c-0.1,0-0.4,0-0.8-0.1l-0.1,0C5.4,35.3,5.3,35.3,5.1,35.3
				L5.1,35.3z M6.4,33.6c0.4,0,0.7,0,0.8,0l0.1,0c-0.1-0.2-0.1-0.4-0.2-0.6c-0.1-0.2-0.2-0.4-0.2-0.5L6.4,33.6z"/>
			<path class="st1" d="M11.6,31.6v-0.2l0.7,0l0.3,0h0.1c0.1,0,0.3,0,0.5,0c0.1,0,0.2,0,0.3,0c0.2,0,0.4,0,0.5,0
				c0.2,0,0.3,0.1,0.4,0.2c0.1,0.1,0.2,0.2,0.3,0.4c0.1,0.2,0.1,0.3,0.1,0.5c0,0.3-0.1,0.6-0.3,0.8c-0.2,0.2-0.5,0.3-0.8,0.3
				c-0.1,0-0.2,0-0.3,0c-0.1,0-0.2-0.1-0.3-0.1c0-0.1,0-0.1,0-0.2c0,0,0.1,0,0.1,0c0,0,0.1,0,0.1,0c0.2,0,0.3,0,0.4-0.1
				C14,33,14,32.8,14,32.5c0-0.2,0-0.4-0.1-0.5c-0.1-0.1-0.1-0.2-0.2-0.3c-0.1-0.1-0.3-0.1-0.4-0.1c-0.1,0-0.2,0-0.3,0.1
				c0,0,0,0.1,0,0.1l0,1.4l0,0.1l0,0.1c0,0,0,0.1,0,0.1v0.2l0,0.4l0,0.5c0,0.1,0,0.2,0,0.3l0.6,0.1c0,0,0,0.1,0,0.1c0,0,0,0.1,0,0.1
				c0,0-0.1,0-0.1,0c-0.1,0-0.2,0-0.3,0c-0.2,0-0.4,0-0.6,0c-0.2,0-0.5,0-0.7,0.1c0,0-0.1,0-0.2,0c0-0.1,0-0.1,0-0.1c0,0,0,0,0-0.1
				l0.2-0.1c0.1,0,0.2-0.1,0.3-0.1c0-0.1,0-0.1,0-0.2c0,0,0,0,0-0.1c0-0.1,0-0.2,0-0.3l0-0.8l0-1c0-0.5,0-0.7,0-0.7
				c0-0.1,0-0.1-0.1-0.1c0,0-0.1-0.1-0.2-0.1C11.8,31.6,11.6,31.6,11.6,31.6z"/>
			<path class="st1" d="M17,35.3l0-0.2c0,0,0.1,0,0.2,0c0.1,0,0.2-0.1,0.3-0.1c0,0,0.1-0.1,0.1-0.2l0.6-1.6l0.7-1.9
				c0.1,0,0.1,0,0.2,0h0.1l0,0.1l0.5,1.2c0.1,0.3,0.2,0.5,0.3,0.8c0.1,0.2,0.2,0.4,0.2,0.6c0,0.1,0.1,0.2,0.2,0.4
				c0,0.1,0.1,0.2,0.2,0.4c0,0.1,0.1,0.1,0.1,0.1c0,0,0.1,0,0.2,0.1c0.1,0,0.2,0,0.2,0.1c0,0.1,0,0.1,0,0.2c0,0,0,0,0,0.1
				c-0.1,0-0.3,0-0.5,0c-0.2,0-0.3,0-0.5,0c-0.2,0-0.3,0-0.3,0l-0.5,0l-0.1,0c0-0.1,0-0.1,0-0.2l0.3-0.1c0.1,0,0.1,0,0.2-0.1
				c0,0,0,0,0-0.1s0-0.1,0-0.1l-0.1-0.3l-0.2-0.6h-1.1c0,0.1-0.1,0.3-0.3,0.7c0,0.1-0.1,0.2-0.1,0.2c0,0.1,0,0.1,0,0.1
				c0,0,0.1,0.1,0.3,0.1c0,0,0.1,0,0.2,0c0,0.1,0,0.1,0,0.2c0,0,0,0,0,0.1c-0.1,0-0.4,0-0.8-0.1l-0.1,0C17.3,35.3,17.2,35.3,17,35.3
				L17,35.3z M18.4,33.6c0.4,0,0.7,0,0.8,0l0.1,0c-0.1-0.2-0.1-0.4-0.2-0.6c-0.1-0.2-0.2-0.4-0.2-0.5L18.4,33.6z"/>
			<path class="st1" d="M23.4,31.6l0-0.2h0.2h0.1c0.1,0,0.2,0,0.2,0c0,0,0.1,0,0.2,0c0,0,0,0,0.1,0c0,0,0.1,0,0.2,0
				c0.1,0,0.2,0,0.2,0c0,0,0.1,0,0.1,0c0.3,0.3,0.5,0.5,0.7,0.7c0.2,0.2,0.9,0.9,2,2.1v-0.1l0-0.4c0-0.2,0-0.4,0-0.5
				c0-0.1,0-0.3,0-0.4c0-0.2,0-0.3,0-0.5c0-0.3,0-0.4,0-0.5c0-0.1,0-0.2,0-0.2c0,0-0.1-0.1-0.3-0.1c-0.1,0-0.2,0-0.2-0.1l0-0.2
				l0.1,0l0.6,0l0.6,0c0,0,0.1,0,0.1,0l0,0.2c0,0-0.1,0-0.1,0.1c-0.1,0-0.2,0.1-0.2,0.1c-0.1,0.1-0.1,0.1-0.2,0.1c0,0,0,0.1,0,0.1
				c0,0,0,0.1,0,0.1c0,0,0,0.1,0,0.3c0,0.3,0,0.5,0,0.7c0,0.1,0,0.1,0,0.2l0,1.1c0,0.1,0,0.1,0,0.2v0.4l0,0.2l0,0.2
				c0,0.1,0,0.1,0,0.1v0.2l-0.3,0L27.1,35l-0.7-0.7l-0.5-0.5l-0.4-0.4c-0.2-0.2-0.4-0.5-0.6-0.6l-0.5-0.4l0,1.1c0,0.1,0,0.1,0,0.2
				l0,0.2l0,0.4c0,0.2,0,0.3,0,0.5c0,0.1,0,0.1,0,0.1c0,0,0,0.1,0,0.1c0.1,0,0.2,0,0.5,0.1c0,0,0,0,0.1,0l0,0.2l-0.1,0
				c-0.1,0-0.3,0-0.6,0c-0.3,0-0.5,0-0.6,0c-0.1,0-0.2,0-0.2,0c0,0-0.1,0-0.1,0c0,0,0-0.1,0-0.1c0,0,0-0.1,0-0.1c0.1,0,0.1,0,0.1,0
				c0,0,0,0,0.1,0c0.2,0,0.3,0,0.3,0c0,0,0-0.1,0-0.2c0-0.3,0-0.5,0-0.6v-0.2l0-1l0-0.6c0-0.2,0-0.4,0-0.5c0,0,0-0.1-0.1-0.1
				c-0.1-0.1-0.1-0.1-0.2-0.2C23.8,31.7,23.7,31.7,23.4,31.6z"/>
			<path class="st1" d="M0,41.8l0-0.2c0,0,0.1,0,0.2,0c0.1,0,0.2,0,0.3-0.1c0,0,0-0.1,0.1-0.1c0-0.1,0-0.3,0-0.5l0-1.3
				c0-0.1,0-0.5,0-1c0-0.1,0-0.2,0-0.3c0,0,0,0,0,0c0,0-0.1,0-0.2,0c0,0-0.1,0-0.3,0l0-0.2l0.6,0l0.9,0l0.1,0c0,0,0,0,0.1,0
				c0,0,0.1,0,0.2,0h0.2c0.1,0,0.3,0,0.5,0.1c0.1,0,0.1,0,0.2,0.1c0.1,0,0.2,0.1,0.3,0.2c0.1,0.1,0.1,0.2,0.2,0.3c0,0.1,0,0.2,0,0.3
				c0,0.1,0,0.2-0.1,0.3c-0.1,0.1-0.1,0.2-0.2,0.3c-0.1,0-0.2,0.1-0.4,0.2c0.3,0.1,0.5,0.2,0.7,0.4c0.2,0.2,0.2,0.4,0.2,0.6
				c0,0.1,0,0.3-0.1,0.4c0,0.1-0.1,0.2-0.2,0.3c-0.1,0.1-0.2,0.2-0.3,0.3c-0.1,0.1-0.3,0.1-0.5,0.2c-0.1,0-0.3,0-0.5,0l-0.5,0
				c-0.2,0-0.5,0-0.7,0C0.6,41.8,0.4,41.8,0,41.8z M1.3,39.5c0.1,0,0.2,0,0.3,0c0.3,0,0.5-0.1,0.7-0.2c0.1-0.1,0.2-0.3,0.2-0.6
				c0-0.2-0.1-0.4-0.2-0.5c-0.1-0.1-0.3-0.2-0.6-0.2c-0.1,0-0.2,0-0.3,0c0,0,0,0.1,0,0.2c0,0.2,0,0.4,0,0.7v0.3
				C1.3,39.4,1.3,39.5,1.3,39.5z M1.4,41.5c0.1,0.1,0.2,0.1,0.3,0.1c0.2,0,0.4,0,0.5-0.1c0.1-0.1,0.2-0.2,0.3-0.3
				c0.1-0.1,0.1-0.3,0.1-0.5c0-0.2,0-0.3-0.1-0.5c-0.1-0.2-0.2-0.3-0.3-0.3c-0.1-0.1-0.3-0.1-0.6-0.1c-0.1,0-0.2,0-0.3,0v0.4v0.4
				l0,0.7C1.3,41.4,1.3,41.4,1.4,41.5z"/>
			<path class="st1" d="M5.8,41.6c0,0,0.1,0,0.2-0.1c0.1,0,0.2,0,0.3-0.1c0,0,0-0.1,0-0.1c0,0,0-0.1,0-0.3l0-0.7l0-0.4l0-0.3l0-0.2
				c0-0.2,0-0.4,0-0.6c0-0.4,0-0.7,0-0.8l-0.2,0c-0.2,0-0.3,0-0.3,0l0-0.2l0,0c0.1,0,0.2,0,0.3,0c0,0,0.1,0,0.3,0c0.1,0,0.2,0,0.2,0
				l0.2,0l0.4,0c0.2,0,0.5,0,0.7,0c0.4,0,0.7,0.1,0.9,0.3C8.9,38.4,9,38.6,9,38.9c0,0.2-0.1,0.4-0.2,0.6c-0.1,0.2-0.3,0.3-0.6,0.4
				c0,0,0.1,0.1,0.1,0.1c0.1,0.1,0.1,0.2,0.2,0.3L9,41.1c0.1,0.2,0.2,0.3,0.2,0.4c0,0,0.1,0.1,0.2,0.1c0.1,0,0.2,0.1,0.2,0.1
				c0,0,0,0.1,0,0.1c0,0,0,0,0,0.1H9.6l-0.1,0l-0.1,0H9.3c-0.1,0-0.1,0-0.2,0l-0.3,0c0,0-0.1,0-0.2,0c0,0-0.1,0-0.1,0l-0.1-0.2
				c-0.1-0.2-0.1-0.3-0.2-0.3c-0.1-0.2-0.2-0.5-0.4-0.9C7.7,40.1,7.6,40,7.6,40c-0.1,0-0.2-0.1-0.3-0.1c0,0-0.1,0-0.2,0
				c0,0.1,0,0.1,0,0.2l0,0.7l0,0.6c0.1,0,0.1,0.1,0.2,0.1c0.1,0,0.3,0.1,0.4,0.1c0,0.1,0,0.2,0,0.2c0,0-0.1,0-0.1,0l-0.1,0
				c-0.4,0-0.7-0.1-0.7-0.1c0,0-0.1,0-0.1,0l-0.4,0c-0.1,0-0.2,0-0.3,0H5.8C5.8,41.8,5.8,41.7,5.8,41.6C5.8,41.7,5.8,41.7,5.8,41.6z
				 M7.1,39.7c0.1,0,0.2,0,0.2,0c0.3,0,0.6-0.1,0.7-0.2c0.1-0.1,0.2-0.3,0.2-0.5c0-0.1,0-0.2,0-0.4c0-0.1-0.1-0.2-0.1-0.2
				c-0.1-0.1-0.2-0.1-0.3-0.2c-0.1,0-0.2,0-0.4,0c-0.1,0-0.2,0-0.2,0l0,0.1l0,0.4l0,0.2l0,0.3C7.1,39.3,7.1,39.4,7.1,39.7L7.1,39.7z
				"/>
			<path class="st1" d="M11.3,41.8l0-0.2c0,0,0.1,0,0.2,0c0.1,0,0.2-0.1,0.3-0.1c0,0,0.1-0.1,0.1-0.2l0.6-1.6l0.7-1.9
				c0.1,0,0.1,0,0.2,0h0.1l0,0.1l0.5,1.2c0.1,0.3,0.2,0.5,0.3,0.8c0.1,0.2,0.2,0.4,0.2,0.6c0,0.1,0.1,0.2,0.2,0.4
				c0,0.1,0.1,0.2,0.2,0.4c0,0.1,0.1,0.1,0.1,0.1c0,0,0.1,0,0.2,0.1c0.1,0,0.2,0,0.2,0.1c0,0.1,0,0.1,0,0.1c0,0,0,0,0,0.1
				c-0.1,0-0.3,0-0.5,0c-0.2,0-0.3,0-0.5,0c-0.2,0-0.3,0-0.3,0l-0.5,0l-0.1,0c0-0.1,0-0.1,0-0.2l0.3-0.1c0.1,0,0.1,0,0.2-0.1
				c0,0,0,0,0-0.1s0-0.1,0-0.1L13.8,41l-0.2-0.6h-1.1c0,0.1-0.1,0.3-0.3,0.7c0,0.1-0.1,0.2-0.1,0.2c0,0,0,0.1,0,0.1
				c0,0,0.1,0.1,0.3,0.1c0,0,0.1,0,0.2,0c0,0.1,0,0.1,0,0.2c0,0,0,0,0,0.1c-0.1,0-0.4,0-0.8-0.1l-0.1,0
				C11.6,41.8,11.5,41.8,11.3,41.8L11.3,41.8z M12.6,40.1c0.4,0,0.7,0,0.8,0l0.1,0c-0.1-0.2-0.1-0.4-0.2-0.6
				c-0.1-0.2-0.2-0.4-0.2-0.5L12.6,40.1z"/>
			<path class="st1" d="M17,38.1l0-0.2h0.2h0.1c0.1,0,0.2,0,0.2,0c0,0,0.1,0,0.2,0c0,0,0,0,0.1,0c0,0,0.1,0,0.2,0c0.1,0,0.2,0,0.2,0
				c0,0,0,0,0.1,0c0.3,0.3,0.5,0.5,0.7,0.7c0.2,0.2,0.9,0.9,2,2.1v-0.1l0-0.4c0-0.2,0-0.4,0-0.5c0-0.1,0-0.3,0-0.4
				c0-0.2,0-0.3,0-0.5c0-0.3,0-0.4,0-0.5c0-0.1,0-0.2,0-0.2c0,0-0.1-0.1-0.3-0.1c-0.1,0-0.2,0-0.2-0.1l0-0.2l0.1,0l0.6,0l0.6,0
				c0,0,0.1,0,0.1,0l0,0.2c0,0-0.1,0-0.1,0.1c-0.1,0-0.2,0.1-0.2,0.1c-0.1,0.1-0.2,0.1-0.2,0.1c0,0,0,0.1,0,0.1c0,0,0,0.1,0,0.1
				c0,0,0,0.1,0,0.3c0,0.3,0,0.5,0,0.7c0,0.1,0,0.1,0,0.2l0,1.1c0,0.1,0,0.1,0,0.2v0.4l0,0.2l0,0.2c0,0.1,0,0.1,0,0.1v0.2l-0.3,0
				l-0.3-0.4l-0.7-0.7l-0.5-0.5l-0.4-0.4c-0.2-0.2-0.5-0.5-0.6-0.6L18,38.8l0,1.1c0,0.1,0,0.1,0,0.2l0,0.2l0,0.4c0,0.2,0,0.3,0,0.5
				c0,0.1,0,0.1,0,0.1c0,0,0,0.1,0,0.1c0.1,0,0.2,0,0.5,0.1c0,0,0,0,0.1,0l0,0.2l-0.1,0c-0.1,0-0.3,0-0.6,0c-0.3,0-0.5,0-0.6,0
				c-0.1,0-0.2,0-0.2,0c0,0-0.1,0-0.1,0c0,0,0-0.1,0-0.1c0,0,0-0.1,0-0.1c0.1,0,0.1,0,0.1,0c0,0,0.1,0,0.1,0c0.2,0,0.3,0,0.3,0
				c0,0,0-0.1,0-0.2c0-0.3,0-0.5,0-0.6v-0.2l0-1l0-0.6c0-0.2,0-0.4,0-0.5c0,0,0-0.1-0.1-0.1c-0.1-0.1-0.1-0.1-0.2-0.2
				C17.3,38.2,17.2,38.2,17,38.1z"/>
			<path class="st1" d="M23.8,41.6c0,0,0.1,0,0.2,0c0.2,0,0.3-0.1,0.3-0.1c0,0,0.1-0.1,0.1-0.2c0,0,0-0.3,0-0.9V40v-0.4v-1v-0.1
				c0-0.1,0-0.1,0-0.1c0,0-0.1,0-0.1,0c-0.1,0-0.1,0-0.2,0c-0.1,0-0.2,0-0.2,0c0,0,0,0-0.1,0v-0.3c0.1,0,0.3-0.1,0.5-0.1
				c0.3-0.1,0.8-0.1,1.3-0.1c0.4,0,0.7,0,0.9,0.1c0.3,0.1,0.5,0.2,0.7,0.3c0.3,0.2,0.4,0.4,0.6,0.7c0.1,0.3,0.2,0.6,0.2,0.9
				c0,0.4-0.1,0.8-0.3,1c-0.2,0.3-0.4,0.5-0.7,0.7c-0.2,0.1-0.5,0.2-0.9,0.2l-0.6,0l-0.2,0l-0.2,0l-0.1,0l-0.2,0l-0.3,0
				c0,0-0.1,0-0.3,0c-0.1,0-0.1,0-0.2,0c-0.1,0-0.1,0-0.1,0C23.8,41.8,23.8,41.7,23.8,41.6z M25.2,38.2c0,0.1,0,0.1,0,0.1v0.5l0,0.4
				c0,0.1,0,0.3,0,0.4l0,0.3l0,0.5l0,0.3c0,0.3,0,0.5,0.1,0.6c0.1,0.1,0.3,0.2,0.6,0.2c0.2,0,0.3,0,0.4-0.1c0.2-0.1,0.3-0.2,0.4-0.3
				c0.1-0.1,0.2-0.3,0.3-0.5c0.1-0.2,0.1-0.5,0.1-0.7c0-0.4-0.1-0.7-0.2-1c-0.1-0.3-0.3-0.4-0.5-0.6c-0.2-0.1-0.5-0.2-0.7-0.2
				C25.5,38.1,25.3,38.2,25.2,38.2z"/>
			<path class="st1" d="M0.2,44.6v-0.2l0.7,0l0.3,0h0.1c0.1,0,0.3,0,0.5,0c0.1,0,0.2,0,0.3,0c0.2,0,0.4,0,0.5,0
				c0.2,0,0.3,0.1,0.4,0.2c0.1,0.1,0.2,0.2,0.3,0.4c0.1,0.2,0.1,0.3,0.1,0.5c0,0.3-0.1,0.6-0.3,0.8c-0.2,0.2-0.5,0.3-0.8,0.3
				c-0.1,0-0.2,0-0.3,0c-0.1,0-0.2-0.1-0.3-0.1c0-0.1,0-0.1,0-0.2c0,0,0.1,0,0.1,0c0,0,0.1,0,0.1,0c0.2,0,0.3,0,0.4-0.1
				c0.1-0.1,0.2-0.3,0.2-0.6c0-0.2,0-0.4-0.1-0.5c-0.1-0.1-0.1-0.2-0.2-0.3c-0.1-0.1-0.3-0.1-0.4-0.1c-0.1,0-0.2,0-0.3,0.1
				c0,0,0,0.1,0,0.1l0,1.4l0,0.1v0.1c0,0,0,0.1,0,0.1v0.2l0,0.4l0,0.5c0,0.1,0,0.2,0,0.3l0.6,0.1c0,0,0,0.1,0,0.1c0,0,0,0.1,0,0.1
				c0,0-0.1,0-0.1,0c-0.1,0-0.2,0-0.3,0c-0.2,0-0.4,0-0.6,0c-0.2,0-0.5,0-0.7,0.1c0,0-0.1,0-0.2,0c0-0.1,0-0.1,0-0.1c0,0,0,0,0-0.1
				l0.2-0.1c0.1,0,0.2-0.1,0.3-0.1c0-0.1,0-0.1,0-0.2c0,0,0,0,0-0.1c0-0.1,0-0.1,0-0.3l0-0.8l0-1c0-0.5,0-0.7,0-0.7
				c0-0.1,0-0.1-0.1-0.1c0,0-0.1-0.1-0.2-0.1C0.3,44.7,0.2,44.7,0.2,44.6z"/>
			<path class="st1" d="M5.1,46.3c0-0.2,0-0.5,0.1-0.7c0.1-0.2,0.2-0.3,0.3-0.5c0.1-0.2,0.3-0.3,0.5-0.4c0.2-0.1,0.4-0.2,0.6-0.3
				c0.2-0.1,0.4-0.1,0.6-0.1c0.4,0,0.7,0.1,1,0.2c0.3,0.2,0.5,0.4,0.7,0.6c0.2,0.3,0.3,0.7,0.3,1.1c0,0.6-0.2,1.1-0.6,1.5
				c-0.4,0.4-0.9,0.6-1.5,0.6c-0.2,0-0.3,0-0.5,0c-0.1,0-0.2,0-0.3-0.1c-0.1-0.1-0.2-0.1-0.2-0.1c-0.2-0.1-0.4-0.3-0.5-0.4
				c-0.1-0.1-0.2-0.3-0.3-0.4c0-0.1-0.1-0.3-0.2-0.5C5.1,46.7,5.1,46.5,5.1,46.3z M7,44.7c-0.2,0-0.3,0-0.4,0.1
				c-0.1,0.1-0.2,0.2-0.3,0.3c-0.1,0.2-0.2,0.3-0.2,0.5C6,45.8,6,46,6,46.3c0,0.2,0,0.3,0,0.4c0,0,0,0.1,0,0.1c0,0.1,0,0.3,0.1,0.3
				c0.1,0.3,0.1,0.4,0.2,0.5c0.1,0.1,0.1,0.2,0.3,0.3C6.6,47.9,6.6,48,6.7,48c0.1,0,0.2,0.1,0.3,0.1c0.2,0,0.4,0,0.6-0.2
				c0.2-0.1,0.3-0.3,0.4-0.5c0.1-0.2,0.2-0.6,0.2-0.9c0-0.2,0-0.4,0-0.6l0-0.1c0,0,0-0.1,0-0.1c-0.1-0.3-0.2-0.6-0.4-0.7
				C7.6,44.7,7.3,44.7,7,44.7z"/>
			<path class="st1" d="M10.7,48.1c0.1,0,0.1,0,0.3,0c0.1,0,0.2,0,0.2,0c0.1,0,0.1,0,0.2,0c0,0,0-0.1,0-0.1l0-0.4l0-0.4v-0.3l0-0.3
				l0-0.3l0-0.7l0-0.3v0c0-0.2,0-0.3,0-0.3c0,0-0.1,0-0.2-0.1c0,0,0,0-0.1,0c0,0-0.1,0-0.1,0c-0.1,0-0.1,0-0.1-0.1
				c0-0.1,0-0.1,0-0.1c0,0,0,0,0-0.1c0,0,0,0,0.1,0c0,0,0.2,0,0.5,0l0.4,0l0.3,0c0.1,0,0.3,0,0.5,0c0.1,0,0.1,0,0.1,0c0,0,0,0,0.1,0
				c0,0,0,0.1,0,0.1c0,0,0,0.1,0,0.1c0,0-0.1,0-0.1,0l-0.4,0.1c0,0,0,0,0,0c0,0,0,0,0,0l0,0.1l0,0.2v0.1v0c0,0,0,0.1,0,0.2
				c0,0,0,0.1,0,0.1c0,0,0,0.1,0,0.2c0,0.1,0,0.2,0,0.3c0,0.1,0,0.2,0,0.4c0,0.1,0,0.1,0,0.2l0,1.4c0,0.1,0,0.1,0,0.1l0.3,0l0.2,0
				l0.2,0c0.3,0,0.6,0,0.7-0.1c0.1-0.1,0.2-0.1,0.3-0.2c0.1-0.1,0.1-0.1,0.2-0.2c0-0.1,0.1-0.2,0.1-0.3h0.1c0,0,0.1,0,0.2,0v0.1
				c0,0.1,0,0.4-0.1,0.7c0,0.1,0,0.2,0,0.3c0,0-0.1,0-0.1,0H14l-0.1,0c0,0-0.1,0-0.3,0c0,0-0.2,0-0.6,0c-0.3,0-0.7,0-1,0l-0.6,0
				c-0.2,0-0.4,0-0.6,0h0c0,0,0,0-0.1,0c0,0,0,0,0-0.1C10.7,48.2,10.7,48.1,10.7,48.1z"/>
			<path class="st1" d="M15.7,48.3v-0.2c0,0,0.1,0,0.2-0.1c0.1,0,0.2-0.1,0.3-0.1c0-0.1,0.1-0.1,0.1-0.3l0-0.4l0-0.7l0-0.2
				c0-0.4,0-0.6,0-0.6l0-0.4l0-0.2l0-0.3l0-0.1c0,0,0-0.1,0-0.1c-0.1,0-0.2-0.1-0.4-0.1c0,0-0.1,0-0.1,0l0-0.3l0.8,0
				c0.1,0,0.2,0,0.2,0c0.1,0,0.3,0,0.5,0c0.1,0,0.2,0,0.3,0c0,0,0,0.1,0,0.1c0,0,0,0.1,0,0.1c-0.1,0-0.2,0.1-0.3,0.1
				c-0.1,0-0.2,0.1-0.2,0.1c0,0.1,0,0.1,0,0.2c0,0.1,0,0.2,0,0.2c0,0.3,0,0.6,0,0.8l0,0.8l0,0.4l0,0.6l0,0.1c0,0,0,0,0,0.1
				c0.1,0,0.2,0,0.3,0.1c0,0,0.1,0,0.2,0c0,0.1,0,0.1,0,0.1c0,0,0,0.1,0,0.1c0,0,0,0-0.1,0c-0.1,0-0.1,0-0.1,0c0,0,0,0-0.1,0
				c0,0-0.2,0-0.4,0l-0.5,0c-0.1,0-0.2,0-0.4,0C15.9,48.3,15.8,48.3,15.7,48.3z"/>
			<path class="st1" d="M22.5,44.5c0,0.1,0.1,0.2,0.1,0.5c0,0.1,0.1,0.3,0.1,0.4h-0.3c-0.2-0.3-0.4-0.5-0.6-0.6
				c-0.2-0.1-0.4-0.2-0.7-0.2c-0.3,0-0.5,0.1-0.7,0.4c-0.2,0.3-0.4,0.8-0.4,1.4c0,0.3,0,0.6,0.1,0.7c0.1,0.2,0.2,0.4,0.3,0.6
				c0.1,0.1,0.2,0.2,0.3,0.3c0.2,0.1,0.3,0.1,0.5,0.1c0.2,0,0.4-0.1,0.6-0.2c0.2-0.1,0.4-0.3,0.6-0.6c0.1,0,0.2,0,0.3,0
				c0,0.1,0,0.2,0,0.2c0,0,0,0.2-0.1,0.4l0,0.1l0,0.1c-0.1,0.1-0.3,0.2-0.5,0.2c-0.2,0-0.5,0.1-0.8,0.1c-0.2,0-0.5,0-0.7-0.1
				c-0.2,0-0.4-0.1-0.5-0.2c-0.2-0.1-0.4-0.3-0.5-0.5c-0.1-0.2-0.2-0.4-0.3-0.6c-0.1-0.2-0.1-0.4-0.1-0.7c0-0.6,0.2-1.1,0.6-1.5
				c0.4-0.4,0.9-0.6,1.4-0.6c0.2,0,0.5,0,0.7,0C22.1,44.4,22.3,44.4,22.5,44.5z"/>
			<path class="st1" d="M24,44.5c0.1,0,0.2,0,0.4,0l0,0c0,0,0.1,0,0.1,0l0,0c0,0,0.1,0,0.2,0c0.2,0,0.4,0,0.6,0c0.2,0,0.3,0,0.5,0
				c0,0,0,0,0,0l0,0c0,0,0,0,0,0.1l0,0.2c0,0-0.1,0-0.2,0l-0.1,0c0,0-0.1,0-0.2,0l0,0l0,0c0.1,0.1,0.2,0.4,0.4,0.7
				c0.1,0.1,0.1,0.2,0.2,0.3c0,0,0.1,0.1,0.2,0.3c0,0,0,0,0,0.1c0,0,0,0.1,0.1,0.1c0,0.1,0.1,0.1,0.1,0.1c0,0.1,0.1,0.1,0.1,0.1
				l0.3-0.4c0.1-0.1,0.2-0.3,0.4-0.6l0,0l0.2-0.4c0-0.1,0.1-0.1,0.1-0.1c0,0,0,0,0-0.1c0,0-0.1,0-0.1,0c0,0,0,0-0.1,0
				c0,0-0.1,0-0.1,0c0,0-0.1,0-0.1,0c0,0,0-0.1,0-0.2l0.6,0c0,0,0,0,0.1,0h0.1l0,0c0.1,0,0.1,0,0.2,0c0,0,0.1,0,0.1,0v0.2l0,0
				c-0.2,0-0.3,0.1-0.3,0.1c-0.1,0.1-0.2,0.2-0.3,0.5L27,45.9c-0.2,0.3-0.4,0.5-0.4,0.7c0,0,0,0.1,0,0.1v0.1V47v0.1
				c0,0.1,0,0.1,0,0.2l0,0.8c0,0,0,0,0,0c0,0,0.1,0,0.2,0c0.2,0,0.3,0,0.3,0.1c0,0,0,0,0,0.1c0,0,0,0,0,0.1c0,0,0,0,0,0.1l-0.3,0
				l-0.3,0l-0.2,0l-0.3,0h-0.2c0,0-0.1,0-0.1,0c-0.1,0-0.2,0-0.2,0l-0.2,0c0,0,0-0.1,0-0.1c0,0,0-0.1,0-0.1l0.5-0.1c0,0,0,0,0.1,0
				c0-0.1,0-0.1,0-0.2c0-0.3,0-0.5,0-0.6c0-0.1,0-0.2,0-0.2v-0.1c0-0.1-0.1-0.3-0.2-0.4c-0.1-0.1-0.1-0.1-0.1-0.1l-0.6-0.9L24.6,45
				c0,0-0.1-0.1-0.2-0.2c0,0-0.1-0.1-0.1-0.1c0,0-0.1,0-0.3-0.1c0,0,0,0,0,0C24,44.6,24,44.6,24,44.5C24,44.5,24,44.5,24,44.5z"/>
		</g>
	</g>
	<path class="st2" d="M0.5,13.4c0,7.4,6,13.4,13.4,13.4c7.4,0,13.4-6,13.4-13.4C27.3,6,21.3,0,13.9,0C6.5,0,0.5,6,0.5,13.4z"/>
</g>
</svg>
